<svg width="24" height="24" viewBox="0 0 24 24" fill="none" xmlns="http://www.w3.org/2000/svg">
<path d="M19.2 5.60001V4.80001C19.2 3.91601 18.484 3.20001 17.6 3.20001H2.39999C1.51599 3.20001 0.799988 3.91601 0.799988 4.80001V5.60001H19.2Z" fill="#C1BDBD"/>
<path d="M0.799988 8V15.2C0.799988 16.084 1.51599 16.8 2.39999 16.8H17.6C18.484 16.8 19.2 16.084 19.2 15.2V8H0.799988Z" fill="#C1BDBD"/>
<path d="M23.2 8.79999V7.99999C23.2 7.11599 22.484 6.39999 21.6 6.39999H20.8V8.79999H23.2Z" fill="#C1BDBD"/>
<path d="M20.8 11.2V16.8C20.8 17.684 20.084 18.4 19.2 18.4H4.79999V19.2C4.79999 20.084 5.51599 20.8 6.39999 20.8H21.6C22.484 20.8 23.2 20.084 23.2 19.2V11.2H20.8Z" fill="#C1BDBD"/>
</svg>
