<svg width="25" height="24" viewBox="0 0 25 24" fill="none" xmlns="http://www.w3.org/2000/svg">
<g clip-path="url(#clip0_1_236)">
<path d="M19.93 12.975C19.97 12.655 20 12.33 20 12C20 11.67 19.97 11.345 19.93 11.025L22.045 9.37C22.235 9.22 22.29 8.95 22.165 8.73L20.165 5.265C20.04 5.05 19.78 4.96 19.555 5.05L17.065 6.055C16.55 5.66 15.985 5.325 15.375 5.07L15 2.42C14.955 2.185 14.75 2 14.5 2H10.5C10.25 2 10.045 2.185 10.005 2.42L9.63001 5.07C9.02001 5.325 8.45501 5.655 7.94001 6.055L5.45001 5.05C5.22501 4.965 4.96501 5.05 4.84001 5.265L2.84001 8.73C2.71501 8.945 2.77001 9.215 2.96001 9.37L5.07001 11.025C5.03001 11.345 5.00001 11.67 5.00001 12C5.00001 12.33 5.03001 12.655 5.07001 12.975L2.96001 14.63C2.77001 14.78 2.71501 15.05 2.84001 15.27L4.84001 18.735C4.96501 18.95 5.22501 19.04 5.45001 18.95L7.94001 17.945C8.45501 18.34 9.02001 18.675 9.63001 18.93L10.005 21.58C10.045 21.815 10.25 22 10.5 22H14.5C14.75 22 14.955 21.815 14.995 21.58L15.37 18.93C15.98 18.675 16.545 18.345 17.06 17.945L19.55 18.95C19.775 19.035 20.035 18.95 20.16 18.735L22.16 15.27C22.285 15.055 22.23 14.785 22.04 14.63L19.93 12.975V12.975ZM12.5 15.5C10.565 15.5 9.00001 13.935 9.00001 12C9.00001 10.065 10.565 8.5 12.5 8.5C14.435 8.5 16 10.065 16 12C16 13.935 14.435 15.5 12.5 15.5Z" fill="#C1BDBD"/>
</g>
<defs>
<clipPath id="clip0_1_236">
<rect width="24" height="24" fill="white" transform="translate(0.5)"/>
</clipPath>
</defs>
</svg>
