<svg width="18" height="18" viewBox="0 0 18 18" fill="none" xmlns="http://www.w3.org/2000/svg">
<path d="M12.2344 4.254H10.875V0.855377H7.125V4.254H5.67188L8.95312 8.1915L12.2344 4.254Z" fill="#EC7E3D"/>
<path d="M9.22425 13.9121V13.2983C9.9165 13.1779 10.2956 12.7204 10.2956 12.1845C10.2956 11.6426 10.0065 11.3115 9.29025 11.0587C8.77838 10.866 8.56763 10.7392 8.56763 10.5409C8.56763 10.3725 8.694 10.2041 9.08513 10.2041C9.519 10.2041 9.79613 10.3425 9.95213 10.4089L10.1269 9.72863C9.9285 9.63225 9.657 9.54825 9.25388 9.53025V9H8.66438V9.57187C8.02013 9.69862 7.64663 10.1134 7.64663 10.6432C7.64663 11.2271 8.0865 11.5279 8.73038 11.745C9.17588 11.895 9.36863 12.0397 9.36863 12.2685C9.36863 12.5096 9.13388 12.6416 8.79075 12.6416C8.39888 12.6416 8.04413 12.5153 7.79138 12.3769L7.61063 13.0815C7.83938 13.2139 8.2305 13.3223 8.634 13.3399V13.9114H9.22425V13.9121Z" fill="#EC7E3D"/>
<path d="M12.75 5.89462L11.7544 7.05487H15.0424C15.0165 7.16437 15 7.27725 15 7.39462C15 8.223 15.6716 8.89462 16.5 8.89462C16.6073 8.89462 16.7115 8.88225 16.8127 8.86087V13.4284C16.7115 13.407 16.6073 13.3946 16.5 13.3946C15.6716 13.3946 15 14.0662 15 14.8946C15 14.9681 15.0112 15.039 15.0217 15.1095H2.97825C2.98875 15.039 3 14.9685 3 14.895C3 14.0666 2.32838 13.395 1.5 13.395C1.44113 13.395 1.38525 13.4055 1.32825 13.4122V8.877C1.38525 8.88375 1.44113 8.89462 1.5 8.89462C2.32838 8.89462 3 8.223 3 7.39462C3 7.27725 2.9835 7.16437 2.958 7.05487H6.17813L5.25 5.89462H0V16.3946H1.49625C1.49738 16.3946 1.4985 16.395 1.5 16.395C1.5015 16.395 1.50225 16.3946 1.50375 16.3946H18V5.89462H12.75Z" fill="#EC7E3D"/>
</svg>
