<svg width="18" height="18" viewBox="0 0 18 18" fill="none" xmlns="http://www.w3.org/2000/svg">
<path d="M14.4 4.19999V3.59999C14.4 2.93699 13.863 2.39999 13.2 2.39999H1.80001C1.13701 2.39999 0.600006 2.93699 0.600006 3.59999V4.19999H14.4Z" fill="#EC7E3D"/>
<path d="M0.600006 6V11.4C0.600006 12.063 1.13701 12.6 1.80001 12.6H13.2C13.863 12.6 14.4 12.063 14.4 11.4V6H0.600006Z" fill="#EC7E3D"/>
<path d="M17.4 6.59999V5.99999C17.4 5.33699 16.863 4.79999 16.2 4.79999H15.6V6.59999H17.4Z" fill="#EC7E3D"/>
<path d="M15.6 8.39999V12.6C15.6 13.263 15.063 13.8 14.4 13.8H3.60001V14.4C3.60001 15.063 4.13701 15.6 4.80001 15.6H16.2C16.863 15.6 17.4 15.063 17.4 14.4V8.39999H15.6Z" fill="#EC7E3D"/>
</svg>
