<svg width="24" height="22" viewBox="0 0 24 22" fill="none" xmlns="http://www.w3.org/2000/svg">
<path d="M23.1405 11.411C22.8922 12.0725 22.2772 12.5 21.573 12.5H21V20.75C21 21.164 20.664 21.5 20.25 21.5H15.75V16.25C15.75 14.1823 14.0677 12.5 12 12.5C9.93224 12.5 8.24999 14.1823 8.24999 16.25V21.5H3.74999C3.33599 21.5 2.99999 21.164 2.99999 20.75V12.5H2.42624C1.72199 12.5 1.10699 12.0733 0.858739 11.4118C0.610489 10.7503 0.792739 10.0228 1.32374 9.55926L10.083 1.26426C11.1585 0.246509 12.8422 0.246509 13.917 1.26426L22.6972 9.57876C23.2057 10.022 23.3887 10.7495 23.1405 11.411Z" fill="#EC7E3D"/>
</svg>
